<svg width="32" height="32" viewBox="0 0 32 32" fill="none" xmlns="http://www.w3.org/2000/svg">
<rect width="32" height="32" rx="4" fill="url(#paint0_linear_16_2)"/>
<path d="M17.4743 15.0001C17.4742 14.4948 17.3129 14.2684 17.195 14.1622C17.0557 14.0368 16.888 14.0001 16.8076 14.0001H15.553V16.0001H16.8076C17.0382 16.0001 17.172 15.9429 17.2529 15.862C17.3338 15.7812 17.4743 15.5639 17.4743 15.0001ZM11.5302 13.0665C11.6778 12.7292 12.0706 12.5753 12.4078 12.7227C12.7451 12.8703 12.899 13.2631 12.7516 13.6003L10.6155 18.4825C10.3036 19.1953 9.28326 19.168 9.01006 18.4395L7.18324 13.5678C7.05398 13.2231 7.2286 12.8384 7.57321 12.7091C7.91796 12.5798 8.30266 12.7549 8.43194 13.0997L9.85446 16.8946L11.5302 13.0665ZM24.8076 18.4571C24.8075 19.3786 23.5596 19.663 23.1598 18.8328L21.5973 15.5867V18.6667C21.5973 19.0349 21.2988 19.3334 20.9306 19.3334C20.5625 19.3333 20.264 19.0349 20.264 18.6667V13.543C20.264 12.6503 21.4354 12.3551 21.872 13.0925L21.9118 13.1674L23.4743 16.4115V13.3334C23.4743 12.9652 23.7727 12.6667 24.1409 12.6667C24.5091 12.6667 24.8076 12.9652 24.8076 13.3334V18.4571ZM18.8076 15.0001C18.8076 15.7695 18.6147 16.3856 18.1956 16.8048C17.7765 17.2239 17.2437 17.3334 16.8076 17.3334H15.553V18.6667C15.553 19.0349 15.2545 19.3334 14.8864 19.3334C14.5182 19.3334 14.2197 19.0349 14.2197 18.6667V13.5333C14.2198 13.0547 14.6077 12.6668 15.0862 12.6667H16.8076C17.1716 12.6667 17.6706 12.7967 18.0869 13.1713C18.5245 13.5651 18.8076 14.1721 18.8076 15.0001Z" fill="white"/>
<path d="M26.6667 11.0001C26.6667 10.4823 26.2731 10.0565 25.7689 10.0053L25.6667 10.0001H6.33333C5.78105 10.0001 5.33333 10.4478 5.33333 11.0001V21.0001C5.33333 21.5524 5.78105 22.0001 6.33333 22.0001H25.6667C26.219 22.0001 26.6667 21.5524 26.6667 21.0001V11.0001ZM28 21.0001C28 22.2887 26.9553 23.3334 25.6667 23.3334H6.33333C5.04467 23.3334 4 22.2887 4 21.0001V11.0001C4 9.71142 5.04467 8.66675 6.33333 8.66675H25.6667L25.7865 8.67C27.0194 8.73236 28 9.7516 28 11.0001V21.0001Z" fill="white"/>
<defs>
<linearGradient id="paint0_linear_16_2" x1="16" y1="0" x2="16" y2="32" gradientUnits="userSpaceOnUse">
<stop stop-color="#0AC5F6"/>
<stop offset="1" stop-color="#4B60FB"/>
</linearGradient>
</defs>
</svg>
