<svg width="48" height="48" viewBox="0 0 48 48" fill="none" xmlns="http://www.w3.org/2000/svg">
<g id="safari-pinned-tab">
<g id="Vector">
<path d="M26.2114 22.5C26.2114 21.742 25.9694 21.4024 25.7924 21.2431C25.5835 21.0551 25.3321 21 25.2114 21H23.3295V24H25.2114C25.5572 24 25.758 23.9143 25.8794 23.793C26.0007 23.6716 26.2114 23.3458 26.2114 22.5ZM17.2954 19.5996C17.5167 19.0937 18.1059 18.8628 18.6118 19.084C19.1176 19.3053 19.3485 19.8945 19.1274 20.4004L15.9233 27.7236C15.4555 28.7928 13.9249 28.7519 13.5151 27.6592L10.7749 20.3515C10.581 19.8345 10.8429 19.2575 11.3598 19.0635C11.8769 18.8695 12.454 19.1323 12.6479 19.6494L14.7817 25.3418L17.2954 19.5996ZM37.2114 27.6855C37.2113 29.0678 35.3394 29.4944 34.7397 28.249L32.396 23.3799V28C32.396 28.5523 31.9482 29 31.396 29C30.8438 28.9998 30.396 28.5522 30.396 28V20.3144C30.396 18.9753 32.1532 18.5325 32.8081 19.6387L32.8676 19.751L35.2114 24.6172V20C35.2114 19.4477 35.6591 19 36.2114 19C36.7636 19 37.2114 19.4477 37.2114 20V27.6855ZM28.2114 22.5C28.2114 23.6541 27.9221 24.5783 27.2934 25.207C26.6647 25.8357 25.8655 26 25.2114 26H23.3295V28C23.3295 28.5522 22.8818 28.9999 22.3295 29C21.7773 29 21.3295 28.5523 21.3295 28V20.2998C21.3297 19.582 21.9115 19 22.6294 19H25.2114C25.7573 19 26.506 19.1949 27.1303 19.7568C27.7867 20.3476 28.2114 21.258 28.2114 22.5Z" fill="white"/>
<path d="M40 16.5C40 15.7233 39.4097 15.0846 38.6533 15.0078L38.5 15H9.5C8.67157 15 8 15.6716 8 16.5V31.5C8 32.3284 8.67157 33 9.5 33H38.5C39.3284 33 40 32.3284 40 31.5V16.5ZM42 31.5C42 33.433 40.433 35 38.5 35H9.5C7.567 35 6 33.433 6 31.5V16.5C6 14.567 7.567 13 9.5 13H38.5L38.6797 13.0049C40.5292 13.0984 42 14.6273 42 16.5V31.5Z" fill="white"/>
</g>
</g>
</svg>
